<svg xmlns="http://www.w3.org/2000/svg" xmlns:xlink="http://www.w3.org/1999/xlink" fill="none" version="1.1" width="127.99996948242188" height="135.1947021484375" viewBox="0 0 127.99996948242188 135.1947021484375"><defs><filter id="master_svg0_39_477" filterUnits="objectBoundingBox" color-interpolation-filters="sRGB" x="0" y="0" width="127.99996948242188" height="135.1947021484375"><feFlood flood-opacity="0" result="BackgroundImageFix"/><feBlend mode="normal" in="SourceGraphic" in2="BackgroundImageFix" result="shape"/><feColorMatrix in="SourceAlpha" type="matrix" result="hardAlpha" values="0 0 0 0 0 0 0 0 0 0 0 0 0 0 0 0 0 0 127 0"/><feOffset dy="0" dx="0"/><feGaussianBlur stdDeviation="0.5"/><feComposite in2="hardAlpha" operator="arithmetic" k2="-1" k3="1"/><feColorMatrix type="matrix" values="0 0 0 0 0 0 0 0 0 0 0 0 0 0 0 0 0 0 1 0"/><feBlend mode="normal" in2="shape" result="effect1_innerShadow"/></filter></defs><g><g filter="url(#master_svg0_39_477)"><path d="M78.5011,133.632Q72.9334,134.573,67.2867,134.573Q65.6349,134.573,63.9851,134.492Q62.3353,134.411,60.6915,134.249Q59.0476,134.087,57.4137,133.845Q55.7798,133.603,54.1597,133.28Q52.5397,132.958,50.9374,132.557Q49.3351,132.156,47.7544,131.676Q46.1737,131.197,44.6185,130.64Q43.0633,130.084,41.5372,129.451Q40.0111,128.819,38.5179,128.113Q37.0247,127.407,35.568,126.628Q34.1112,125.85,32.6944,125Q31.2776,124.151,29.9042,123.234Q28.5308,122.316,27.2041,121.332Q25.8773,120.348,24.6005,119.3Q23.3236,118.252,22.0997,117.143Q20.8758,116.034,19.7078,114.866Q18.5398,113.698,17.4305,112.474Q16.3213,111.25,15.2734,109.973Q14.2255,108.696,13.2415,107.369Q12.2575,106.043,11.3399,104.669Q10.4222,103.296,9.57297,101.879Q8.72378,100.462,7.94513,99.0054Q7.16648,97.5487,6.46024,96.0555Q5.75401,94.5623,5.12189,93.0362Q4.48978,91.5101,3.93331,89.9549Q3.37683,88.3997,2.89734,86.819Q2.41785,85.2383,2.0165,83.636Q1.61514,82.0337,1.29289,80.4137Q0.970646,78.7936,0.728277,77.1597Q0.485908,75.5258,0.324004,73.882Q0.1621,72.2381,0.0810498,70.5883Q0,68.9385,0,67.2867Q0,65.6349,0.0810498,63.9851Q0.1621,62.3353,0.324004,60.6915Q0.485908,59.0476,0.728277,57.4137Q0.970646,55.7798,1.29289,54.1597Q1.61514,52.5397,2.0165,50.9374Q2.41785,49.3351,2.89734,47.7544Q3.37683,46.1737,3.93331,44.6185Q4.48978,43.0633,5.12189,41.5372Q5.75401,40.0111,6.46024,38.5179Q7.16648,37.0247,7.94513,35.568Q8.72378,34.1112,9.57297,32.6944Q10.4222,31.2776,11.3399,29.9042Q12.2575,28.5308,13.2415,27.2041Q14.2255,25.8773,15.2734,24.6005Q16.3213,23.3236,17.4305,22.0997Q18.5398,20.8758,19.7078,19.7078Q20.8758,18.5398,22.0997,17.4305Q23.3236,16.3213,24.6005,15.2734Q25.8773,14.2255,27.2041,13.2415Q28.5308,12.2575,29.9042,11.3399Q31.2776,10.4222,32.6944,9.57297Q34.1112,8.72378,35.568,7.94513Q37.0247,7.16648,38.5179,6.46024Q40.0111,5.75401,41.5372,5.12189Q43.0633,4.48978,44.6185,3.93331Q46.1737,3.37683,47.7544,2.89734Q49.3351,2.41785,50.9374,2.0165Q52.5397,1.61514,54.1597,1.29289Q55.7798,0.970646,57.4137,0.728277Q59.0476,0.485908,60.6915,0.324004Q62.3353,0.1621,63.9851,0.0810498Q65.6349,0,67.2867,0Q68.6463,-1.72205e-16,70.0048,0.054924Q71.3634,0.109848,72.7185,0.219606Q74.0737,0.329364,75.4234,0.493778Q76.773,0.658191,78.1149,0.876991Q79.4568,1.09579,80.7888,1.36862Q82.1208,1.64145,83.4406,1.96786Q84.7605,2.29428,86.0661,2.67374Q87.3717,3.05321,88.6609,3.4851Q89.9501,3.917,91.2208,4.40062Q92.4915,4.88425,93.7416,5.41881Q94.9918,5.95337,96.2193,6.53799Q97.4468,7.12262,98.6497,7.75635Q99.8526,8.39009,101.029,9.0719Q102.205,9.75371,103.353,10.4825Q104.501,11.2113,105.618,11.9858Q106.736,12.7603,107.821,13.5794Q108.442,13.7967,108.999,14.1459Q109.556,14.4951,110.022,14.9589L112.85,17.7741Q114.794,19.5628,116.591,21.4984L121.526,26.4106Q121.73,26.6139,121.913,26.8361Q122.097,27.0584,122.257,27.2976Q122.418,27.5367,122.554,27.7904Q122.69,28.0441,122.801,28.31Q122.912,28.5758,122.996,28.8512Q123.08,29.1267,123.137,29.409Q123.194,29.6913,123.223,29.9778Q123.251,30.2644,123.252,30.5523Q123.252,30.8403,123.225,31.1269Q123.197,31.4136,123.141,31.6961Q123.085,31.9787,123.002,32.2544Q122.919,32.5301,122.809,32.7963Q122.7,33.0626,122.564,33.3168Q122.429,33.571,122.269,33.8107Q122.109,34.0505,121.927,34.2734Q121.744,34.4963,121.541,34.7003Q121.439,34.8023,121.333,34.8991Q121.226,34.9959,121.115,35.0874Q121.004,35.1789,120.888,35.2648Q120.773,35.3508,120.653,35.4309Q120.534,35.5111,120.41,35.5853Q120.287,35.6595,120.16,35.7276Q120.033,35.7956,119.903,35.8574Q119.773,35.9192,119.64,35.9745Q119.507,36.0298,119.371,36.0785Q119.236,36.1272,119.098,36.1693Q118.96,36.2113,118.821,36.2465Q118.681,36.2817,118.54,36.31Q118.399,36.3384,118.256,36.3597Q118.114,36.3811,117.97,36.3955Q117.827,36.4099,117.683,36.4172Q117.54,36.4245,117.395,36.4248Q117.251,36.425,117.108,36.4182Q116.964,36.4114,116.82,36.3976Q116.677,36.3837,116.535,36.3629Q116.392,36.342,116.251,36.3142Q116.109,36.2864,115.97,36.2517Q115.83,36.217,115.692,36.1755Q115.554,36.1339,115.418,36.0857Q115.283,36.0375,115.149,35.9827Q115.016,35.9278,114.886,35.8666Q114.756,35.8053,114.629,35.7377Q114.501,35.6701,114.378,35.5963Q114.254,35.5226,114.134,35.4428Q114.014,35.3631,113.898,35.2776Q113.783,35.1921,113.671,35.101Q113.56,35.0099,113.453,34.9135Q113.346,34.817,113.244,34.7155L101.74,23.2638Q101.353,22.8787,101.044,22.4289L100.93,22.4289Q100.028,21.7523,99.0992,21.1124Q98.1705,20.4726,97.2169,19.8707Q96.2633,19.2687,95.2862,18.7056Q94.3091,18.1424,93.3102,17.6191Q92.3113,17.0957,91.2921,16.6129Q90.273,16.1301,89.2352,15.6886Q88.1975,15.2472,87.1428,14.8479Q86.0882,14.4485,85.0183,14.0919Q83.9484,13.7353,82.8651,13.422Q81.7818,13.1086,80.6867,12.8391Q79.5917,12.5696,78.4867,12.3444Q77.3817,12.1191,76.2685,11.9385Q75.1553,11.7578,74.0358,11.6221Q72.9162,11.4864,71.7922,11.3958Q70.6681,11.3051,69.5413,11.2598Q68.4144,11.2144,67.2867,11.2144Q65.9102,11.2144,64.5354,11.282Q63.1605,11.3495,61.7907,11.4845Q60.4208,11.6194,59.0592,11.8213Q57.6976,12.0233,56.3475,12.2919Q54.9975,12.5604,53.6622,12.8949Q52.327,13.2293,51.0098,13.6289Q49.6926,14.0285,48.3965,14.4922Q47.1005,14.9559,45.8288,15.4827Q44.5571,16.0095,43.3127,16.598Q42.0684,17.1865,40.8544,17.8354Q39.6405,18.4843,38.4598,19.1919Q37.2791,19.8996,36.1346,20.6643Q34.9901,21.4291,33.8845,22.249Q32.7789,23.069,31.7148,23.9423Q30.6508,24.8155,29.6309,25.7399Q28.611,26.6643,27.6376,27.6376Q26.6643,28.611,25.7399,29.6309Q24.8155,30.6508,23.9423,31.7148Q23.069,32.7789,22.249,33.8845Q21.4291,34.9901,20.6643,36.1346Q19.8996,37.2791,19.1919,38.4598Q18.4843,39.6405,17.8354,40.8544Q17.1865,42.0684,16.598,43.3127Q16.0095,44.5571,15.4827,45.8288Q14.9559,47.1005,14.4922,48.3965Q14.0285,49.6926,13.6289,51.0098Q13.2293,52.327,12.8949,53.6623Q12.5604,54.9975,12.2919,56.3475Q12.0233,57.6976,11.8213,59.0592Q11.6194,60.4208,11.4845,61.7907Q11.3495,63.1605,11.282,64.5354Q11.2144,65.9102,11.2144,67.2867Q11.2144,68.6632,11.282,70.038Q11.3495,71.4129,11.4845,72.7827Q11.6194,74.1526,11.8213,75.5142Q12.0233,76.8758,12.2919,78.2258Q12.5604,79.5759,12.8949,80.9111Q13.2293,82.2464,13.6289,83.5636Q14.0285,84.8808,14.4922,86.1769Q14.9559,87.4729,15.4827,88.7446Q16.0095,90.0163,16.598,91.2607Q17.1865,92.505,17.8354,93.719Q18.4843,94.9329,19.1919,96.1136Q19.8996,97.2943,20.6643,98.4388Q21.4291,99.5833,22.249,100.689Q23.069,101.795,23.9423,102.859Q24.8155,103.923,25.7399,104.943Q26.6643,105.962,27.6376,106.936Q28.611,107.909,29.6309,108.833Q30.6508,109.758,31.7148,110.631Q32.7789,111.504,33.8845,112.324Q34.9901,113.144,36.1346,113.909Q37.2791,114.674,38.4598,115.381Q39.6405,116.089,40.8544,116.738Q42.0684,117.387,43.3127,117.975Q44.5571,118.564,45.8288,119.091Q47.1005,119.617,48.3965,120.081Q49.6926,120.545,51.0098,120.945Q52.327,121.344,53.6623,121.679Q54.9975,122.013,56.3475,122.282Q57.6976,122.55,59.0592,122.752Q60.4208,122.954,61.7907,123.089Q63.1605,123.224,64.5354,123.291Q65.9102,123.359,67.2867,123.359Q70.0221,123.359,72.7445,123.093Q72.779,123.053,72.8142,123.014L117.08,73.7044Q117.183,73.5901,117.291,73.481Q117.399,73.3718,117.512,73.2681Q117.625,73.1644,117.744,73.0664Q117.862,72.9684,117.985,72.8763Q118.108,72.7841,118.235,72.6982Q118.363,72.6122,118.494,72.5326Q118.625,72.4529,118.761,72.3799Q118.896,72.3068,119.034,72.2404Q119.173,72.174,119.315,72.1145Q119.456,72.055,119.601,72.0025Q119.745,71.9501,119.892,71.9047Q120.039,71.8594,120.188,71.8213Q120.336,71.7832,120.487,71.7525Q120.638,71.7217,120.79,71.6984Q120.941,71.6751,121.094,71.6592Q121.247,71.6433,121.401,71.635Q121.554,71.6267,121.708,71.6259Q121.861,71.6251,122.015,71.6318Q122.168,71.6385,122.321,71.6528Q122.474,71.667,122.627,71.6887Q122.779,71.7105,122.93,71.7396Q123.08,71.7688,123.23,71.8053Q123.379,71.8418,123.526,71.8856Q123.674,71.9294,123.818,71.9804Q123.963,72.0313,124.106,72.0894Q124.248,72.1474,124.387,72.2123Q124.526,72.2772,124.662,72.3489Q124.798,72.4205,124.931,72.4988Q125.063,72.577,125.191,72.6616Q125.319,72.7463,125.443,72.8371Q125.567,72.9279,125.686,73.0247Q125.806,73.1215,125.92,73.224Q126.149,73.4291,126.357,73.6557Q126.564,73.8823,126.749,74.1281Q126.933,74.3739,127.093,74.6366Q127.252,74.8993,127.385,75.1764Q127.518,75.4535,127.623,75.7422Q127.728,76.031,127.804,76.3286Q127.881,76.6263,127.927,76.93Q127.974,77.2336,127.991,77.5405Q128.007,77.8473,127.994,78.1542Q127.98,78.4612,127.937,78.7653Q127.893,79.0695,127.82,79.368Q127.747,79.6664,127.645,79.9562Q127.543,80.2461,127.413,80.5245Q127.283,80.803,127.126,81.0673Q126.969,81.3317,126.787,81.5795Q126.605,81.8272,126.4,82.056L82.1341,131.365Q81.7807,131.759,81.3661,132.088Q80.9515,132.417,80.4876,132.671Q80.0236,132.926,79.5235,133.099Q79.0233,133.272,78.5011,133.359L78.5011,133.632ZM95.3227,67.2867L44.8577,67.2867Q44.72,67.2867,44.5825,67.2935Q44.4451,67.3003,44.3081,67.3138Q44.1711,67.3272,44.0349,67.3474Q43.8988,67.3676,43.7638,67.3945Q43.6288,67.4213,43.4952,67.4548Q43.3617,67.4882,43.23,67.5282Q43.0983,67.5681,42.9687,67.6145Q42.8391,67.6609,42.7119,67.7136Q42.5847,67.7662,42.4603,67.8251Q42.3358,67.8839,42.2144,67.9488Q42.0931,68.0137,41.975,68.0845Q41.8569,68.1553,41.7425,68.2317Q41.628,68.3082,41.5175,68.3902Q41.4069,68.4722,41.3005,68.5595Q41.1941,68.6469,41.0921,68.7393Q40.9901,68.8317,40.8928,68.9291Q40.7954,69.0264,40.703,69.1284Q40.6105,69.2304,40.5232,69.3368Q40.4359,69.4432,40.3539,69.5537Q40.2719,69.6643,40.1954,69.7788Q40.119,69.8932,40.0482,70.0113Q39.9774,70.1293,39.9125,70.2507Q39.8477,70.3721,39.7888,70.4966Q39.7299,70.621,39.6773,70.7482Q39.6246,70.8753,39.5782,71.0049Q39.5319,71.1346,39.4919,71.2663Q39.4519,71.398,39.4185,71.5315Q39.385,71.665,39.3582,71.8Q39.3313,71.9351,39.3111,72.0712Q39.2909,72.2074,39.2775,72.3444Q39.264,72.4813,39.2572,72.6188Q39.2505,72.7563,39.2505,72.894Q39.2505,73.7232,39.4904,74.5169Q39.1147,75.4272,39.0715,76.4111Q39.0594,76.6866,39.0744,76.962Q39.0894,77.2373,39.1314,77.5099Q39.1733,77.7825,39.2418,78.0496Q39.3103,78.3168,39.4046,78.5759Q39.499,78.8351,39.6183,79.0837Q39.7376,79.3324,39.8808,79.5682Q40.0239,79.804,40.1895,80.0246Q40.3551,80.2453,40.5416,80.4486L63.9169,105.946Q64.01,106.047,64.1081,106.144Q64.2061,106.241,64.3088,106.333Q64.4115,106.425,64.5186,106.512Q64.6256,106.599,64.7369,106.681Q64.8481,106.762,64.9632,106.838Q65.0782,106.914,65.1969,106.984Q65.3156,107.054,65.4376,107.119Q65.5595,107.183,65.6845,107.241Q65.8095,107.3,65.9372,107.352Q66.0649,107.404,66.195,107.45Q66.3251,107.495,66.4573,107.535Q66.5895,107.574,66.7235,107.607Q66.8575,107.64,66.9929,107.666Q67.1283,107.692,67.2648,107.711Q67.4014,107.731,67.5387,107.744Q67.676,107.756,67.8138,107.763Q67.9516,107.769,68.0895,107.768Q68.2274,107.767,68.3652,107.76Q68.5029,107.752,68.6401,107.738Q68.7773,107.724,68.9136,107.703Q69.0499,107.682,69.185,107.654Q69.3202,107.627,69.4538,107.593Q69.5874,107.558,69.7192,107.518Q69.8509,107.477,69.9805,107.43Q70.1102,107.383,70.2373,107.329Q70.3645,107.276,70.4888,107.216Q70.6132,107.157,70.7345,107.091Q70.8558,107.026,70.9737,106.954Q71.0916,106.883,71.2059,106.806Q71.3202,106.728,71.4305,106.646Q71.5409,106.563,71.647,106.475Q71.7532,106.387,71.8549,106.294Q72.0584,106.108,72.2427,105.903Q72.427,105.697,72.5902,105.475Q72.7535,105.253,72.8941,105.015Q73.0348,104.778,73.1514,104.528Q73.2681,104.278,73.3598,104.018Q73.4514,103.758,73.517,103.49Q73.5827,103.222,73.6217,102.949Q73.6608,102.676,73.6729,102.401Q73.6849,102.125,73.6699,101.85Q73.6549,101.575,73.613,101.302Q73.5711,101.029,73.5026,100.762Q73.4341,100.495,73.3397,100.236Q73.2454,99.9768,73.1261,99.7282Q73.0067,99.4795,72.8636,99.2437Q72.7204,99.0079,72.5548,98.7873Q72.3893,98.5666,72.2028,98.3633L53.9937,78.5012L95.3227,78.5012Q95.4603,78.5012,95.5978,78.4944Q95.7353,78.4877,95.8723,78.4742Q96.0093,78.4607,96.1454,78.4405Q96.2816,78.4203,96.4166,78.3934Q96.5516,78.3666,96.6851,78.3331Q96.8187,78.2997,96.9504,78.2597Q97.0821,78.2198,97.2117,78.1734Q97.3413,78.127,97.4685,78.0744Q97.5956,78.0217,97.7201,77.9628Q97.8445,77.904,97.9659,77.8391Q98.0873,77.7742,98.2054,77.7034Q98.3234,77.6327,98.4379,77.5562Q98.5523,77.4797,98.6629,77.3977Q98.7735,77.3157,98.8799,77.2284Q98.9863,77.1411,99.0883,77.0486Q99.1903,76.9562,99.2876,76.8589Q99.3849,76.7615,99.4774,76.6595Q99.5698,76.5576,99.6571,76.4512Q99.7444,76.3447,99.8264,76.2342Q99.9084,76.1236,99.9849,76.0092Q100.061,75.8947,100.132,75.7766Q100.203,75.6586,100.268,75.5372Q100.333,75.4158,100.392,75.2914Q100.45,75.1669,100.503,75.0397Q100.556,74.9126,100.602,74.783Q100.649,74.6534,100.688,74.5217Q100.728,74.3899,100.762,74.2564Q100.795,74.1229,100.822,73.9879Q100.849,73.8529,100.869,73.7167Q100.889,73.5806,100.903,73.4436Q100.916,73.3066,100.923,73.1691Q100.93,73.0316,100.93,72.894Q100.93,72.7563,100.923,72.6188Q100.916,72.4813,100.903,72.3444Q100.889,72.2074,100.869,72.0712Q100.849,71.9351,100.822,71.8Q100.795,71.665,100.762,71.5315Q100.728,71.398,100.688,71.2663Q100.649,71.1346,100.602,71.0049Q100.556,70.8753,100.503,70.7482Q100.45,70.621,100.392,70.4966Q100.333,70.3721,100.268,70.2507Q100.203,70.1293,100.132,70.0113Q100.061,69.8932,99.9849,69.7788Q99.9084,69.6643,99.8265,69.5537Q99.7445,69.4432,99.6571,69.3368Q99.5698,69.2304,99.4774,69.1284Q99.3849,69.0264,99.2876,68.9291Q99.1903,68.8317,99.0883,68.7393Q98.9863,68.6469,98.8799,68.5595Q98.7735,68.4722,98.6629,68.3902Q98.5523,68.3082,98.4379,68.2317Q98.3234,68.1553,98.2054,68.0845Q98.0873,68.0137,97.9659,67.9488Q97.8445,67.8839,97.7201,67.8251Q97.5956,67.7662,97.4685,67.7136Q97.3413,67.6609,97.2117,67.6145Q97.0821,67.5681,96.9504,67.5282Q96.8187,67.4882,96.6851,67.4548Q96.5516,67.4213,96.4166,67.3945Q96.2816,67.3676,96.1454,67.3474Q96.0093,67.3272,95.8723,67.3138Q95.7353,67.3003,95.5978,67.2935Q95.4603,67.2867,95.3227,67.2867ZM114.858,116.122L117.513,120.742L122.366,123.267C123.075,123.636,123.516,124.343,123.516,125.112C123.516,125.881,123.075,126.589,122.366,126.957L117.513,129.485L114.858,134.102C114.47,134.776,113.728,135.195,112.921,135.195C112.114,135.195,111.371,134.776,110.984,134.102L108.329,129.485L103.478,126.957C102.769,126.589,102.328,125.881,102.328,125.112C102.328,124.343,102.769,123.636,103.478,123.267L108.329,120.742L110.984,116.122C111.371,115.448,112.114,115.03,112.921,115.03C113.728,115.03,114.47,115.448,114.858,116.122Z" fill-rule="evenodd" fill="#FFFFFF" fill-opacity="1"/></g></g></svg>